<?xml version="1.0" encoding="UTF-8"?>
<svg id="_1" data-name="1" xmlns="http://www.w3.org/2000/svg" viewBox="0 0 307.53 196.8">
  <defs>
    <style>
      .cls-1 {
        fill-rule: evenodd;
      }
    </style>
  </defs>
  <path class="cls-1" d="M191.24,143.01c11.15,0,20.45-.07,29.76.03,3.77.04,5.57,2.35,4.62,5.37-.84,2.7-3.14,2.24-5.07,2.29-9.95.21-19.89.29-29.84.45-40.36.69-80.72,1.4-121.08,2.08-1.75.03-3.51,0-5.27-.07-1.98-.08-3.32-.9-3.36-3.12-.04-2.11-.08-4.7,2.76-4.45,6.22.54,6.3-3.12,6.15-7.62-.1-2.85.27-5.91,3.97-6.61,2.21,2.09,1.28,4.59,1.59,6.8.31,2.13.79,4.22,3.17,4.71,2.74.56,4.28-1.33,5.41-3.5,1.24-2.39,1.57-5.01,1.73-7.65.19-3.26.99-6.4,2.35-9.31,1.68-3.58,4.2-6.78,8.63-6.14,3.86.55,5.92,3.65,6.6,7.35.69,3.73.92,7.54,1.5,11.3.33,2.13-.31,5.24,3.15,5.21,2.8-.02,3.86-2.44,4.31-4.8.54-2.86.89-5.78,1.07-8.69.27-4.38.31-8.77.47-13.15.12-3.27.91-6.4,2.69-9.15,2.39-3.69,5.92-5.89,10.3-5.54,4.3.34,6.48,3.68,7.77,7.44,1.53,4.46,2.14,9.08,2.26,13.8.09,3.5.31,7.02.79,10.48.36,2.62,1.13,5.48,4.4,5.76,3.31.27,4.48-2.41,5.11-5.01.81-3.4,1.25-6.89,1.81-10.35.69-4.33,1.13-8.71,2.06-12.98,1.15-5.26,3.69-9.86,7.94-13.32,6.45-5.26,12.68-3.97,16.49,3.56,2.69,5.33,3.33,11.14,3.39,17.05.06,5.84-.22,11.72,1.68,17.39.57,1.69,1.07,3.48,3.07,3.88,2.34.48,3.87-.96,5.05-2.75,2.82-4.28,3.71-9.16,4.26-14.13,1.19-10.77,1.72-21.57,1.62-32.41-.04-4.68-.05-9.38,1.58-13.88,3.33-9.21,13.3-13.17,21.39-8.5,3.48,2.01,4.88,5.17,3.09,7.96-1.87,2.93-3.99,4.27-7.96,2.15-6.73-3.59-9.65-1.9-10.41,5.71-.61,6.1-.48,12.27-.52,18.41-.06,7.91-.52,15.78-1.57,23.62-.96,7.06-2.99,13.63-8.9,20.34ZM177.19,143.32c-5.99-9.33-5.58-18.97-5.69-28.55-.03-2.31-.31-4.66-.8-6.92-.72-3.29-.45-8.13-4.65-8.43-4.19-.29-5.83,4.12-7.35,7.63-.23.54-.45,1.09-.57,1.65-2.4,11.5-1.67,23.57-7.61,34.62h26.66ZM134.48,143.42c-5.98-9.58-4.46-20.12-6.36-30.04-.49-2.56.91-6.86-3.21-6.88-3.43,0-3.87,3.79-4.14,6.76-.19,2.03-.38,4.07-.36,6.11.08,8.09.07,16.17-2.99,24.36,5.86,1.26,10.95.62,17.07-.31ZM95.11,122.7c-3.27,7.64-2.9,14.8-4.66,22.18,3.21-.13,5.69.87,8.97-1.12-3.16-6.16-.17-13.45-4.31-21.05Z"/>
</svg>