<?xml version="1.0" encoding="UTF-8"?>
<svg id="Calque_2" data-name="Calque 2" xmlns="http://www.w3.org/2000/svg" viewBox="0 0 571.1 307.98">
  <defs>
    <style>
      .cls-1 {
        fill: #d9d9d9;
      }

      .cls-1, .cls-2, .cls-3, .cls-4, .cls-5 {
        stroke-miterlimit: 2.61;
        stroke-width: 1.35px;
      }

      .cls-1, .cls-2, .cls-4, .cls-5 {
        stroke: #1d1d1b;
      }

      .cls-1, .cls-4, .cls-5 {
        fill-rule: evenodd;
      }

      .cls-2, .cls-3 {
        fill: none;
      }

      .cls-3 {
        stroke: #4d4d4d;
      }

      .cls-5 {
        fill: #9e9e9e;
      }
    </style>
  </defs>
  <g id="Calque_1-2" data-name="Calque 1">
    <path class="cls-4" d="M463.88,5.53c-3.98,1.36-7.06,5.91-7.93,11.78-.93,6.19-1.02,12.72-1.04,19.05-.16,52.25.08,105.03-.21,158.58l-1.36,16.96-.15,50.16,1.26,13.38-.13,21.27c0,2.67,1.54,7.12,4.28,7.12l97.46.32c2.77,0,4.32-4.42,4.33-7.13l.03-21.23,1.34-13.37.15-50.16-1.25-17c0-53.56.58-106.33.74-158.58.02-6.33-.03-12.82-.92-19.05-.86-5.84-3.92-10.45-7.89-11.8-10.72-3.62-27.55-5.11-44.38-5.16-16.83-.05-33.63,1.33-44.34,4.86h0Z"/>
    <path class="cls-2" d="M558.79,159.9c.15-40.74.5-81.05.62-121.04.02-6.33-.03-12.82-.89-19.05-.83-5.84-3.75-10.45-7.6-11.8-10.3-3.62-26.5-5.1-42.71-5.15-16.21-.05-32.39,1.34-42.68,4.86-3.85,1.36-6.8,5.92-7.63,11.78-.9,6.19-.98,12.72-1,19.05-.12,39.99.02,80.3-.1,121.04M559.41,41.99c.02-6.16-.03-12.46-.89-18.53-.83-5.71-3.75-10.19-7.6-11.5-10.3-3.52-26.5-4.97-42.71-5.02-16.21-.05-32.39,1.31-42.68,4.73-3.85,1.33-6.8,5.75-7.63,11.49-.9,6.03-.98,12.36-1,18.52"/>
    <path class="cls-2" d="M564.04,79.41c-2.22.12-4.31,1.26-6.14,3.24-3.32,8.37-6.15,16.68-9.08,26.13-.79,2.51-1.33,8.74-1.48,14.02-.35,7.5-.3,13.53-.33,22.24,0,2.19.31,5.29,1.19,5.29,3.16,0,8.41,1.56,10.01,1.56M558.21,151.9l5.38.02"/>
    <path class="cls-5" d="M546.64,122.09c-.35,7.89-.3,13.63-.33,21.88,0,2.54,1.13,4.77,1.58,4.77l8.15.02c.55,0,.85-.78.82-1.99l.52-54.17c.05-4.79-1.75-4.93-2.96-1.35-2.3,6.78-4.41,12.05-6.19,18.44-.63,2.25-1.36,5.96-1.6,12.39h0Z"/>
    <path class="cls-1" d="M552.22,98.95h4.79s-.47,47.8-.47,47.8c-.03.85-.2.98-.52,1.04l-8.09-.02c-.29-.13-.52-.69-.78-1.18-.29-.91-.45-1.44-.51-2.68.01-3.62.05-7.37.07-10.99.12-5.97.1-12.56.9-18.23.7-4.92,2.34-9.16,3.63-12.9.33-.91.66-1.89.99-2.84h0Z"/>
    <path class="cls-2" d="M464.91,307.3h0M464.91,307.3h0M464.91,307.3h0M464.91,307.3h0M217.37,59.33h0M0,194.98h0"/>
    <path class="cls-5" d="M556.54,95.77l.15-5.48c1.43.36,4.49,3.37,5.08,3.38,1.27,1.11,8.23,6.25,8.23,7.62,1.01.88.12,3.16-1.08,2.44-5.86-3.05-6.54-4.88-12.37-7.96h0Z"/>
    <path class="cls-5" d="M544.09,112.33c-12.71-4.05-23.8-4.51-35.96-4.54-12.1-.04-22.64.65-35.37,4.33-2.78-8.23-8.08-23.41-9.86-30.69,30.69-11.68,58.97-11.6,89.53.27-1.29,7.27-5.39,23.08-8.34,30.63h0Z"/>
    <path class="cls-1" d="M491.63,107.18c-6.04.5-12.2,1.76-18.05,3.4-2.94-8.95-6.18-17.89-8.79-26.93l-.26-1.11-.13-.33c9.67-3.46,19.46-6.11,29.64-7.38,7.24-.83,14.55-1.03,21.85-.49,10.4.88,20.47,3.13,30.41,6.48l2.83.99,1.86.69c-.37,2.48-1.09,5.25-1.72,7.66-1.65,6.78-3.47,13.69-5.83,20.24l-.1.36c-1.21-.33-2.41-.72-3.62-1.02-14.44-3.63-30.03-3.68-44.84-2.84-1.04.06-2.25.19-3.26.28h0Z"/>
    <path class="cls-3" d="M552.47,82.54c.3-2.61.24-4.44-2.82-6.21-12.41-7.08-26.62-9.28-42.99-8.84M549.68,76.01c1.77-2.02,3.51-5.44,3.46-11.8M553.14,64.22l-.45-55.29M546.25,67.29c-3.12-3.34-4.93-9.77-6.17-19.26-1.56-12.07-3.22-23.36-3.33-32.95,2.08,1.96,3.5,6.37,4.34,11.82,1.89,12.4,3.68,24.86,5.5,37.3"/>
    <path class="cls-5" d="M524.5,65.17c0-.49.36-.88.82-.88s.81.39.81.88-.36.88-.82.88-.81-.39-.81-.88h0Z"/>
    <path class="cls-3" d="M560.82,157.49l-5.65,3.02-55.35-.17M561.08,157.49l-61.25-.18M500.07,163.67l55.19.17-.33,109.92-.07,23.22-48.24-.14M558.83,159.15l-.34,114.61-.07,22.11M558.42,295.87c0,2.25-1.16,5.97-3.44,5.96M554.98,301.83l-48.37-.14M555.22,165.33v-4.96M555,261.62h-3.36M551.64,261.61c-6.56-.02-11.89-5.38-11.87-11.94M539.77,249.67l.12-38.91M539.89,210.75c.02-6.56,5.45-11.89,11.94-11.87M551.83,198.88h3.36M454.88,81.08c2.22.14,4.3,1.28,6.12,3.28,3.27,8.39,6.05,16.72,8.92,26.19.78,2.51,1.28,8.75,1.39,14.03.3,7.5.22,13.54.19,22.24,0,2.19-.34,5.28-1.22,5.28-3.16,0-8.42,1.51-10.02,1.5M460.28,153.6l-5.38-.02"/>
    <path class="cls-5" d="M469.37,121.86c.3,7.89.22,13.64.2,21.89,0,2.54-1.16,4.76-1.61,4.76l-8.15-.02c-.55,0-.85-.78-.81-1.99l-.2-54.18c-.02-4.79,1.78-4.92,2.97-1.33,2.26,6.79,4.33,12.08,6.08,18.48.61,2.25,1.32,5.97,1.53,12.4h0Z"/>
    <path class="cls-1" d="M463.93,98.68h-4.79s.18,47.77.18,47.77c.03.85.19.98.52,1.05l8.09.02c.29-.13.52-.68.79-1.17.3-.91.46-1.43.53-2.67.01-3.62-.01-7.37,0-10.99-.08-5.97-.03-12.56-.79-18.24-.67-4.93-2.29-9.17-3.55-12.93-.32-.91-.65-1.89-.97-2.84h0Z"/>
    <path class="cls-5" d="M459.64,95.48l-.11-5.48c-1.44.35-4.51,3.35-5.1,3.34-1.28,1.1-8.27,6.2-8.27,7.57-1.01.88-.14,3.16,1.07,2.45,5.88-3.02,6.57-4.84,12.42-7.89h0Z"/>
    <path class="cls-3" d="M463.79,82.28c-.29-2.61-.22-4.44,2.86-6.19,12.45-7.01,26.67-9.12,43.05-8.58M466.61,75.76c-1.76-2.03-3.47-5.46-3.39-11.82M463.22,63.95l.79-55.28M470.09,67.07c3.14-3.32,4.99-9.74,6.29-19.22,1.63-12.06,3.36-23.34,3.52-32.93-2.09,1.95-3.54,6.35-4.41,11.79-1.96,12.39-3.82,24.84-5.72,37.26"/>
    <path class="cls-5" d="M491.85,65.08c0-.49-.36-.88-.81-.88s-.82.39-.82.88.36.88.81.88.82-.39.82-.88h0Z"/>
    <path class="cls-3" d="M454.98,157.17l5.63,3.05,55.35.17M454.72,157.17l61.25.18M515.69,163.71l-55.19-.17-.33,109.92-.07,23.22,48.24.14M456.97,158.84l-.34,114.61-.07,22.11M456.56,295.57c0,2.25,1.12,5.97,3.41,5.98M459.96,301.55l48.37.14M460.54,165.05v-4.96M460.18,261.33h3.36M463.54,261.34c6.56.02,11.92-5.31,11.94-11.87M475.48,249.47l.12-38.91M475.6,210.56c.02-6.56-5.38-11.92-11.87-11.94M463.73,198.62h-3.36M541.81,157.53l.95-45.79M474.19,157.33l-.68-45.8M539.43,157.52l.95-45.79M476.57,157.33l-.68-45.8M462.53,261.21l-.1,33.17,90.09.27.1-33.17M462.72,198.65l.1-33.17,90.09.27-.1,33.17M465.92,294.39l.1-33.17M466.31,165.46l-.1,33.17M469.38,294.4l.1-34.48M469.77,165.47l-.1,34.48M472.84,294.41l.11-37.12M473.22,165.48l-.11,37.12M476.29,294.42l.39-128.93M479.75,294.43l.39-128.93M483.21,294.44l.39-128.93M486.67,294.45l.39-128.93M490.12,294.46l.39-128.93M493.58,294.47l.39-128.93M497.04,294.48l.39-128.93M500.5,294.49l.39-128.93M503.95,294.5l.39-128.93M507.41,294.51l.39-128.93M510.87,294.52l.39-128.93M514.33,294.53l.39-128.93M517.78,294.54l.39-128.93M521.24,294.56l.39-128.93M524.7,294.57l.39-128.93M528.15,294.58l.39-128.93M531.61,294.59l.39-128.93M535.07,294.6l.39-128.93M538.53,294.61l.39-128.93M541.98,294.62l.11-37.64M542.37,165.69l-.11,37.64M545.44,294.63l.1-35M545.83,165.7l-.1,35M548.9,294.64l.1-33.17M549.28,165.71l-.1,33.17"/>
  </g>
</svg>